<svg xmlns="http://www.w3.org/2000/svg" viewBox="0 0 591.49 614.61"><defs><style>.cls-1{fill:#fff;}</style></defs><g id="Calque_2" data-name="Calque 2"><g id="Calque_1-2" data-name="Calque 1"><g id="RSS"><path class="cls-1" d="M386.44,19.38c-.91,8.68.23,18.24-3.05,25.91-26.1,61-53,121.56-79.71,182.27-6.67,15.17-5.84,16.95,8.71,24.34q42.72,21.71,85.19,43.92c15,7.9,15.48,18.6,5.1,31.4-45.39,55.95-90.83,111.89-134.69,169-25.66,33.42-48.44,69.06-72.38,103.8-3.37,4.89-6,10.3-10,14.56-11.13-13.26-8.42-23.38-4.56-33.26,13.64-34.81,27-69.73,41.4-104.24,18.65-44.73,38.32-89,57-133.75,1.5-3.58.46-10.63-2.17-13.06-7.1-6.55-15.64-11.56-23.72-17-21.86-14.72-43.93-29.15-65.62-44.12-10.3-7.12-11-14.87-2.21-25.21,44.14-52.05,87.55-104.72,131.41-157,15.91-19,32.27-37.55,48.67-56.08,4.39-5,9.72-9.08,14.62-13.58Z"/><path class="cls-1" d="M560.55,3.07c16.62-4.48,23,9.48,28.47,18.83s1.47,20.53-8.21,29.37c-18.61,17-36.06,35.26-53.4,53.57-3.63,3.83-6.61,10.1-6.62,15.25q-.56,183.39,0,366.79c0,5.19,2.82,11.53,6.43,15.34,18.54,19.53,37.8,38.35,56.72,57.51,8.64,8.75,9,22.08-.29,30-8.57,7.32-13.46,21.2-28.4,18.3-4.63-.9-10-2.51-13.19-5.65Q505,566.06,468.8,528.83c-2.82-2.9-4.64-8.08-4.64-12.22q-.35-210.33.1-420.66c0-4.75,2.88-10.56,6.28-14.08q34.72-36,70.46-71c4.91-4.78,12-7.3,18.12-10.87C559.6,1,560.07,2.05,560.55,3.07Z"/><path class="cls-1" d="M125.51,308c0,68.79.18,137.58-.31,206.37a28.08,28.08,0,0,1-7,17.63c-23.36,24.35-47.41,48-71.4,71.77-10.42,10.31-22.5,9.92-32.91-.86C7.28,596.09-2.57,590.59.62,578.76c1.75-6.5,3.67-13.91,8-18.57,17.48-18.73,36.21-36.29,53.84-54.89A24.51,24.51,0,0,0,68.67,490q.49-182.66-.06-365.32c0-5.92-3.08-13.17-7.15-17.53C44.24,88.75,26.08,71.24,8.3,53.37c-9.8-9.85-9.8-19.66,0-29.8,3-3.08,6-6,9-9.07C31.05.7,36.66.18,51.07,14.19q35.36,34.39,69.43,70.1c3.47,3.64,4.78,10.61,4.81,16C125.62,169.56,125.51,238.78,125.51,308Z"/></g></g></g></svg>