<svg xmlns="http://www.w3.org/2000/svg" viewBox="0 0 359.19 253.93"><defs><style>.cls-1{fill:#ffcd40;}</style></defs><g id="Calque_2" data-name="Calque 2"><g id="Calque_1-2" data-name="Calque 1"><path class="cls-1" d="M308,253.41V191.84c3.71-.35,5.56-2.81,6.88-5.93a60.72,60.72,0,0,0,4.54-22.42c.48-18.68.71-37.36.53-56-.11-11.23-.59-22.51-3.64-33.46-.4-1.45-.94-2.87-1.48-4.29-1.26-3.29-3.09-6.05-6.91-6.65V.88a29.62,29.62,0,0,1,22.35,4.9c10.49,7.25,16.95,17.23,21.4,29,3.63,9.62,4.64,19.55,5.19,29.63,1.48,27.32,2.8,54.66,2.12,82-.36,14.65-1.16,29.3-2,43.92-.42,7.29-.69,14.71-2.33,21.77-3.16,13.57-9.52,25.47-20.87,34.29C326.18,252.3,317.86,254.92,308,253.41Z"/><path class="cls-1" d="M50.65.67V63c-4.46,1-6.44,4.55-7.29,8.53C41.8,78.73,40.05,86,39.66,93.34q-1.27,23.82-1.16,47.72c0,12.75.18,25.57,3.15,38.11A44.42,44.42,0,0,0,44.37,187c1.36,3,2.94,4.08,6.31,4.93v61.46c-10.85,2.09-19.71-1.6-27.48-8.77C9.88,232.27,3.8,216.67,2.64,198.93c-1-15-2.08-30-2.42-45-.39-16.8-.2-33.63.13-50.43C.61,90.76,1.61,78,2.05,65.23c.55-16,3.81-31.14,12.45-44.8,4.32-6.84,10.28-12,17-16.49C37.35,0,43.81.38,50.65.67Z"/><path class="cls-1" d="M61.74.08c5.55,0,11-.22,16.39.07a8.16,8.16,0,0,1,7.42,8.17q.09,23.34,0,46.68c0,4.17-3.08,7.83-7.14,8.07-5.49.32-11,.08-16.67.08Z"/><path class="cls-1" d="M297.11.61V63.17c-5.58,0-11.1.23-16.6-.07-3.76-.21-7-4-7-8q-.12-23.34,0-46.67A7.85,7.85,0,0,1,281,.68C286.28.4,291.62.61,297.11.61Z"/><path class="cls-1" d="M297.23,253.58c-5.31,0-10.4.23-15.46-.06s-8.23-3.82-8.27-8.83q-.15-22.27,0-44.54c0-5.13,3.61-8.49,8.67-8.53s9.95,0,15.06,0Z"/><path class="cls-1" d="M61.73,253.71v-61.8c5.68,0,11.38-.39,17,.13,4.14.38,6.79,4.12,6.81,8.4q.09,22.27,0,44.54a8.78,8.78,0,0,1-8.5,8.69C72.05,253.87,67,253.71,61.73,253.71Z"/></g></g></svg>