<svg xmlns="http://www.w3.org/2000/svg" viewBox="0 0 331.56 366.65"><defs><style>.cls-1{fill:#fff;}</style></defs><g id="Calque_2" data-name="Calque 2"><g id="Calque_1-2" data-name="Calque 1"><path id="Fleche_bas" data-name="Fleche bas" class="cls-1" d="M235,198.11h4.25q41.07,0,82.13,0c1.14,0,2.29.09,3.43.18,3.26.26,5.29,2,6.38,5.08s0,5.34-2,7.33c-5.33,5.26-10.78,10.4-16.16,15.61q-50.73,49-101.43,98.08Q191.24,344,171,363.77c-4,3.85-6.41,3.84-10.34,0Q109.1,313.63,57.49,263.48C39.41,246,21.16,228.61,3,211.21c-2.35-2.25-3.75-4.63-2.5-8s3.87-5,7.43-5c5.1-.06,10.2,0,15.3,0H97.39V8.1c0-6.2,1.94-8.1,8.18-8.1H226.43C233.1,0,235,1.79,235,8.41v189.7Z"/></g></g></svg>