<svg xmlns="http://www.w3.org/2000/svg" viewBox="0 0 416.58 127.54"><defs><style>.cls-1{fill:#ffcd40;}</style></defs><g id="Calque_2" data-name="Calque 2"><g id="Calque_1-2" data-name="Calque 1"><path class="cls-1" d="M409.41,120.64c-106.52-8.09-213.88-5.66-320.46,1-27.67,1.62-55.32,3.67-83,5.82-2.22.17-4.64.3-5.89-1.93-1.56-8.48,14.78-21.13,22.21-24.31,23.76-10.95,47.36-22.27,71-33.55a3.6,3.6,0,0,0,2.06-4.85Q86.16,34.31,77,5.81c-3-11.09,13.44-2.94,18.81-2.71,93.7,22.1,187.44,44.07,281.35,65.21,7,1,11.88,4.9,15.62,10.8,7.28,11.48,14.81,22.8,22.22,34.2C418.93,118.14,415.05,121.49,409.41,120.64ZM384.87,98.36l.48-.67C381,92.56,378.56,84.43,371.29,83c-85.25-19.19-170.58-38-256.1-56-3-.07-15.38-4.24-12.92.88,4.77,10.67,7.73,22,11.4,33.08-1.51,3.73,29.27,4.57,33.53,5.89C166.62,69,186,71.3,205.43,73.62,265.43,80.41,325.3,88.45,384.87,98.36ZM54.18,105.57l.22.62c71.23-2.79,142.37-7.55,213.74-6.77-.27-2.94-2.08-3.07-3.63-3.27-27.4-3.47-54.82-6.74-82.32-9.2q-30-2.91-59.9-6.08c-8.93-1-17.59-.4-25.84,3.65C82.44,91.7,67.72,97.55,54.18,105.57Z"/></g></g></svg>