<svg xmlns="http://www.w3.org/2000/svg" viewBox="0 0 532.22 567"><defs><style>.cls-1{fill:#fff;}</style></defs><g id="Calque_2" data-name="Calque 2"><g id="Calque_1-2" data-name="Calque 1"><g id="groupe"><path class="cls-1" d="M93.22,168.64V148.39h-39c-.36,6.25-.73,12.63-1.15,20H27.73c-.48-6.69-.94-13.1-1.39-19.41-24.44-3.3-25-3.28-25.63-27.47Q-.29,80.25.76,39C1.33,17.25,19.06.74,40.85.44,61,.15,81.13.37,101.27.3,126.82.21,145.85,17.37,146.53,43c.79,29.42.42,58.87,0,88.3-.19,15.63-1.54,16.44-17.59,16.56-3,0-6,0-10.13,0v20.79ZM30.15,65.27h89.29c0-9.08-.38-17.92.1-26.71C120,30,116.63,26.76,108.06,27c-15.86.43-31.74.12-47.61.14-34.56.05-34.56.06-32,35.05C28.43,62.53,28.76,62.84,30.15,65.27ZM29,99.63v22.16H54V99.63Zm90,23.07V100H94v22.7Z"/><path class="cls-1" d="M311.71,147.88V168.7H285.8v-20h-40v19.77H219.44V148.89a56.62,56.62,0,0,0-6.3-1c-18.31-.47-19-.43-19.53-18.36q-1.23-45.24-.7-90.53c.25-20.43,17.14-37.58,37.91-38.34Q265.67-.61,300.57.58c21.91.78,38.76,19.68,38.89,44.16.17,29.75-1.14,59.52-2,89.27-.26,9.15-3.38,15.78-14.61,14C319.54,147.42,316.07,147.88,311.71,147.88ZM312.05,65c0-11.06.87-19.68-.4-28-.56-3.64-5.39-9.36-8.43-9.45-25.09-.78-50.22-.65-75.33-.17-2.43,0-6.65,4.1-6.85,6.55-.79,9.85-.33,19.8-.33,31Zm-92.46,57h26.06V99.8H219.59Zm91.7.24V100H287.05v22.29Z"/><path class="cls-1" d="M311.71,344.81v22.26H285.22V345.93l-39.08-2.35v22.75h-26.5V346.45c-2.09-.79-3.07-1.48-4.07-1.51-22-.62-21.95-.61-22.16-22.39-.27-27.11-.81-54.21-.93-81.32-.13-25.69,16.18-41.89,41.81-41.94,19.76,0,39.61,1.23,59.25-.29,29.41-2.28,46.24,21.43,46.14,46.22-.11,28.59-1.58,57.17-2,85.76-.14,10.28-3.88,15.17-14.53,13.89C319.78,344.46,316.27,344.81,311.71,344.81Zm.38-82.06c0-10.14-.15-19.77.06-29.39.14-6.43-2.72-9.05-9-9-25.13.11-50.27-.15-75.4.31-2.54,0-7,3.86-7.17,6.18-.79,10.25-.34,20.59-.34,33.59,23.19,0,44.71.15,66.23-.07C294.76,264.26,303.08,263.34,312.09,262.75Zm-92.56,57.88h26.14V299.05H219.53Zm67.06.52h24.94V299.26H286.59Z"/><path class="cls-1" d="M504.28,148.35v21.09L478,171V148.63H438.7v19.68H412.58c-.3-6.34-.61-12.74-.89-18.84-1.09-.65-1.7-1.32-2.34-1.35-22.26-1-22.26-1-22.47-23.76-.26-27.11-.66-54.23-.74-81.34C386.07,17.53,403.68.14,429.2.16c18.21,0,36.42.14,54.63.18,28.71,0,46.38,14.86,47.73,43.57,1.31,27.78.49,55.74-.87,83.55-1,20-2.06,20-21.4,20.46C507.77,148,506.27,148.17,504.28,148.35ZM412.13,64.6H503.8c0-10.47-.06-19,0-27.5.06-6.51-2.38-10.1-9.55-10-24,.18-48-.26-72,.46-3.44.1-9.18,4.91-9.63,8.13C411.29,45.07,412.13,54.8,412.13,64.6Zm91.43,57.65V100H479.12v22.27ZM438.32,99.79h-25.6v22.28h25.6Z"/><path class="cls-1" d="M119.17,345.73v22H93.76c-.3-6.88-.61-14.05-1-21.77H54.28c-.31,6.32-.62,12.74-1,20H27.61V347.08c-1.48-1-2.08-1.77-2.73-1.82C1.82,343.62,1.39,343.64.67,314.35.05,289.18.29,264,.7,238.78c.37-23.28,17.45-39.5,40.71-39.5,20.16,0,40.46,1.53,60.43-.37,26.79-2.56,45,20.82,44.92,44.79-.13,26.35,0,52.71-.06,79.06-.08,20.25-1.27,21.39-21.07,22.21C123.76,345,121.91,345.4,119.17,345.73Zm.33-82.38c0-10.2.67-20.24-.39-30.1-.34-3.2-5.16-8.38-8-8.46-24.7-.65-49.42-.58-74.12,0-3,.07-8.12,4.2-8.38,6.82-1,10.16-.4,20.48-.4,31.75ZM54.73,298.93H29v21.69H54.73Zm65.52.5H94.31v21.8h25.94Z"/><path class="cls-1" d="M503.87,345.65V367l-26.52,1.43V346H438.42v20H412.7c-.38-6.49-.77-13.23-1.16-19.83-25.07-3.38-25.17-3.38-25.32-29.36-.16-24.82.61-49.66-.28-74.45C385,216.82,406.71,197,429.51,199a334.31,334.31,0,0,0,55.8,0c32-2.67,46,22.23,46.47,44.45.59,27.89.09,55.83-.72,83.73-.5,17.44-1.14,17.41-19.07,17.85C509.68,345.09,507.37,345.38,503.87,345.65Zm-90.66-83.31H504c0-10.23-.44-18.41.12-26.51.61-8.85-3.37-11.7-11.63-11.54-15.9.3-31.8-.12-47.69.19-38.47.74-32.31-7.73-32.59,34.19C412.24,259.4,412.61,260.12,413.21,262.34Zm24.52,58.36V299H412.62V320.7Zm40.58.42h25.43V299.7H478.31Z"/><path class="cls-1" d="M311.51,543.72V567H285V544.59H245.61v21.14h-26V545.12c-2.4-.63-3.81-1.35-5.2-1.31-21.49.58-19.11.33-20.4-18.81-2.06-30.44-1.48-61.14-.47-91.68.67-20,18.4-35.91,38.34-36.31q33.71-.69,67.44-.05c19.39.33,36.93,13.85,37.77,32.69,1.53,34.28.52,68.68.1,103-.1,8.08-4.65,12.7-13.71,11.14C320.15,543.24,316.62,543.72,311.51,543.72Zm.56-82.08c0-10-.05-19.22,0-28.43.06-7.24-3.41-10.52-10.63-10.49-24,.09-48-.2-71.93.33-3.05.07-8.38,3.89-8.6,6.35-1,10.53-.41,21.19-.41,32.24Zm-66.28,34.24H219.73v22.73h26.06Zm65.78-.23H286.45v23.41h25.12Z"/><path class="cls-1" d="M119,544.37v22H93.67V544.6H54.2c-.29,6.53-.6,13.32-.94,21H27.7V545.8c-2.08-1.12-2.72-1.74-3.38-1.78C3,542.88,2.27,542.92.87,512.7-.3,487.2-.25,461.57.79,436.06c.94-23.23,18.47-38.81,42-39.15,19.74-.29,39.49-.18,59.24-.09,26,.11,42.8,14.25,44.09,40.3,1.47,29.74,1,59.61.31,89.41C146.07,542.07,144.34,542.55,119,544.37Zm.51-82.13c0-11.2-.13-20.81,0-30.41.12-7.18-3.58-9.2-10.2-9.14-24,.19-47.95.37-71.91-.12-9.54-.2-10.88,5.56-9,11.82,2.74,9.28-9.27,25.7,8.35,27.24C63.54,464,90.69,462.24,119.47,462.24ZM28.64,496.32v22.05H54.13V496.32Zm65.53.09v22.24h25.67V496.41Z"/><path class="cls-1" d="M503.28,544.12v22.2H477.79V544.64H438.33c-.32,6.54-.65,13.35-1,21h-25V545.83c-1.6-1-2.19-1.76-2.83-1.8-22.36-1.4-22.67-1.38-23-23.9q-.63-41.28-.23-82.59c.23-23.23,17.23-40.31,40.3-40.65,21.32-.31,42.65-.21,64,.11,19.91.3,38.44,14.38,39.46,33.86,1.7,32.39.57,64.95.32,97.43-.09,11.94-6.21,17.58-18.55,15.49C509.56,543.4,507.18,543.93,503.28,544.12Zm-90.52-82.86H504c0-9.75-.21-18.65.06-27.54.26-8.63-3.73-11.43-12.08-11.15-15.1.5-30.23.18-45.35.18C409.7,422.75,409.7,422.74,412.76,461.26ZM478,518.79H503.4V495.51C472.64,494.1,477.6,492.4,478,518.79Zm-39.73-22.41H412.92v22h25.31Z"/><path class="cls-1" d="M155.26,404.16l-10.06-8.05c12.16-12.94,23.49-25.94,36-37.67,3.38-3.16,10.39-2.44,15.73-3.51l2.09,3.46Z"/><path class="cls-1" d="M389.9,161.68l-48,46.77-7.65-9c12.53-12,24.43-24.41,37.63-35.27C375.72,161,383.29,162.43,389.9,161.68Z"/><path class="cls-1" d="M141.41,160c29-3,35.76,25.72,55.73,37l-9.55,12Z"/><path class="cls-1" d="M339.56,354.38c5.05,2.25,10.92,3.52,15,6.93,11.51,9.61,22.28,20.1,34.13,31l-10.63,12-41.91-44.55Z"/><path class="cls-1" d="M160,269.73h18.27v14.61H160Z"/><path class="cls-1" d="M371,283.38H352.57V269.87H371Z"/></g></g></g></svg>