<svg xmlns="http://www.w3.org/2000/svg" viewBox="0 0 347.17 177.9"><defs><style>.cls-1{fill:#ffffe4;}</style></defs><g id="Calque_2" data-name="Calque 2"><g id="Calque_1-2" data-name="Calque 1"><g id="OK"><path class="cls-1" d="M165.21,88.22c0,47.93-28.13,89.68-83.71,89.68C28.4,177.9,0,138.5,0,89,0,38.92,30.55,0,83.78,0,133.71,0,165.21,35.82,165.21,88.22ZM33.6,88.2c0,35,16.29,63,49.18,63,35.61,0,48.83-29.64,48.83-62.55,0-34.27-15-61.95-49.21-61.95C48.45,26.7,33.6,53.43,33.6,88.2Z"/><path class="cls-1" d="M198.92,2.5H231V82.28C242.9,69,281.33,28.44,305,2.5h39.21L273.11,74.72,347.17,175.4h-39L250.57,95.74,231,114.06V175.4H198.92Z"/></g></g></g></svg>