<svg xmlns="http://www.w3.org/2000/svg" viewBox="0 0 627.63 502.94"><defs><style>.cls-1{fill:#fff;}</style></defs><g id="Calque_2" data-name="Calque 2"><g id="Calque_1-2" data-name="Calque 1"><g id="Sortie"><path class="cls-1" d="M15.91,487.25H459.16V467.32q0-58.17-.05-116.34c0-1.89.47-3.16,2.25-4,2.76-1.38,5.35-3.13,8.14-4.45,3.51-1.66,5.66-.24,5.67,3.67,0,14.47,0,28.95,0,43.43L475,476.4c0,8.78,0,17.55,0,26.54H0V0H475.21V141.21h-16V15.67H15.91Z"/><path class="cls-1" d="M625.21,247.34,500.58,190.69a4.14,4.14,0,0,0-5.85,3.76v49.19H165.32v14.12h1.59q26.39,0,52.75.05c49.58,0,99.15-.31,148.72,0,42.12.29,84.23-.8,126.35.67v49.25a4.14,4.14,0,0,0,5.85,3.76l124.63-56.65A4.14,4.14,0,0,0,625.21,247.34Z"/></g></g></g></svg>