<svg xmlns="http://www.w3.org/2000/svg" viewBox="0 0 483.45 567"><defs><style>.cls-1{fill:#fff;}</style></defs><g id="Calque_2" data-name="Calque 2"><g id="Calque_1-2" data-name="Calque 1"><g id="reglage"><path class="cls-1" d="M441.79,223.27h25.69c6.22,0,7.63,1.42,7.68,7.74,0,.91,0,1.83,0,2.88a5.87,5.87,0,0,0,1.33.37c6.18.22,6.94,1,6.95,7.06,0,2,0,3.91,0,5.87,0,4.81-1.55,6.36-6.3,6.51-.55,0-1.1.08-2,.14,0,1.62,0,3.09,0,4.56-.13,4-2.09,5.84-6,5.85H442c-.07,1.34-.16,2.45-.16,3.56q0,145.9,0,291.81c0,5.69-1.65,7.33-7.44,7.35q-9.86,0-19.71,0c-5.5,0-7-1.47-7-6.92q0-137.26,0-274.52V264.26c-8.59,0-16.86-.12-25.12,0-6.37.12-8.15-1.44-8.23-8,0-.77,0-1.55,0-2.64-1.08,0-1.86,0-2.64,0-3.81-.16-5.07-1.45-5.13-5.35-.05-2.77,0-5.53,0-8.3,0-4.53,1.13-5.66,5.68-5.76h1.94c.16-2.07.16-4,.47-5.87.63-3.79,2.24-5.12,6.07-5.13,8.86,0,17.71,0,26.94,0V219.7q0-106.32,0-212.63c0-6.37.69-7,7.18-7l20.4,0c5.89,0,6.55.58,6.55,6.49q0,72.94,0,145.9,0,33.36,0,66.73Z"/><path class="cls-1" d="M39.51,98.77H15.84c-6.74,0-8-1.28-8.18-8,0-.67-.08-1.34-.14-2.2-1.3-.06-2.42,0-3.53-.17-2.48-.3-4-1.52-4-4.23C0,81.08,0,78,0,74.85c0-4.2.82-5,5-5.09.78,0,1.56,0,2.2,0a3.68,3.68,0,0,0,.37-.92c.5-9.77.5-9.77,10.45-9.76h21.3c.06-1.17.15-2.16.15-3.15q0-25.41,0-50.82c0-4.06,1-5.06,5.07-5.07,7.14,0,14.29,0,21.43,0,6.35,0,7.3,1,7.3,7.47q0,23.69,0,47.36v4.18H95.53c1.15,0,2.31-.07,3.46,0,4.54.12,6.25,1.84,6.32,6.33,0,1.35,0,2.71,0,4C113,70.59,113,70.59,113,78.62c0,.35,0,.69,0,1,0,7.91,0,7.91-7.37,9.14-.1.2-.28.39-.29.6-.36,8.91-.85,9.38-9.91,9.38-7.24,0-14.48,0-22.14,0V560.41c0,4.8-1.79,6.53-6.72,6.55q-10,0-20.05,0c-5.24,0-7-1.85-7-7.05q0-184.08,0-368.18,0-44.43,0-88.85Z"/><path class="cls-1" d="M223.45,449.65c-8.26,0-16.18,0-24.1,0s-8.94-1.18-9.12-8.94c0-.45-.08-.89-.15-1.63l-2.68-.14c-3.75-.17-4.78-1.23-4.84-5.11,0-2.76,0-5.53,0-8.29,0-4.62,1-5.62,5.62-5.81l2.08-.09c0-1.76-.05-3.46,0-5.15.14-4,2-5.81,6-5.81h27.16V6.68c0-5.73.87-6.62,6.5-6.61,6.8,0,13.6,0,20.4,0,5.08,0,6.57,1.46,6.57,6.56q0,100.42,0,200.86,0,98.53,0,197.07v4.09h25.08c7.79,0,9,1.2,9.11,8.9,0,.57,0,1.13.07,1.63.27.19.46.44.63.43,7.29-.32,7.57,2.55,7.49,8.09,0,1.61,0,3.22,0,4.84-.06,5.1-1.23,6.29-6.26,6.4-.55,0-1.09.07-1.56.09a3.5,3.5,0,0,0-.32.81c-.63,9.44-1,9.77-10.38,9.77H257.19c-.1,1.15-.24,2-.24,2.92q0,53.93.06,107.86c0,4.82-1.5,6.5-6.29,6.54-7.26.07-14.52.06-21.78,0-4,0-5.49-1.6-5.49-5.75q0-53.58,0-107.17Z"/></g></g></g></svg>