<svg xmlns="http://www.w3.org/2000/svg" viewBox="0 0 380.06 265.59"><defs><style>.cls-1{fill:#ffcd40;}</style></defs><g id="Calque_2" data-name="Calque 2"><g id="Calque_1-2" data-name="Calque 1"><path class="cls-1" d="M208.89,265.27c-11.33,0-22.66,0-34,0a41.19,41.19,0,0,1-5.87-.43c-5.16-.74-7.75-3.42-8.11-8.95-.57-8.68-1.16-17.37-1.2-26.06-.08-15.18.22-30.37.4-45.55a36.55,36.55,0,0,1,.43-4.89c.51-3.49,2.3-4.94,6.3-5.07,2.42-.08,4.84,0,7.27,0,4.67,0,7.53-2.64,7.2-7.27a148,148,0,0,0-2-16.68c-1.47-7.81-6.29-13.23-13.44-16.51-4.15-1.9-8.42-3.56-12.66-5.26a26.64,26.64,0,0,1-14.1-13.26,84.37,84.37,0,0,1-7.62-21.92,15.91,15.91,0,0,1-.2-2c-.1-1.4.66-2.34,1.94-2a14.54,14.54,0,0,1,5.36,2c3.08,2.3,5.78,5.12,8.78,7.54a39.93,39.93,0,0,0,20.25,8.7,6.22,6.22,0,0,0,6.74-3.33A28.26,28.26,0,0,0,178.1,91.3c.23-7.44,0-14.9.05-22.36a17.67,17.67,0,0,1,.7-4.79,4.07,4.07,0,0,1,4.47-3.05c5.76.19,11.52.4,17.28.49,11.71.18,23.43.23,35.14.44a120.31,120.31,0,0,1,12.32.7c4.46.54,6.28,2.85,6.55,7.38.39,6.4.61,12.82,1.26,19.19a162.07,162.07,0,0,0,2.51,16.24A21.43,21.43,0,0,1,253.3,125c-4.18,4.8-8,10-8.65,16.41-.8,7.39-.9,14.87-1.15,22.31a35.27,35.27,0,0,0,.56,6.63c.41,2.65,1.69,3.69,4.34,3.91q2.25.18,4.5.39c4,.37,5.69,2.09,6,6.57.5,6.45,1,12.92,1.14,19.38.18,10.35.14,20.7,0,31-.1,7.65-.47,15.31-.77,23a17.57,17.57,0,0,1-.5,3.29c-1.16,4.78-3.82,6.83-9.28,6.94-13.55.28-27.1.48-40.65.72Z"/><path class="cls-1" d="M19.73,26.75c0,2.83-.16,5.44.06,8,.17,2.08,1.76,3.33,3.63,4,5.66,2,11.26,4.22,17,5.76,28.62,7.6,57.32,14.89,85.92,22.54A120,120,0,0,0,162,71.35c5.76-.2,6.91,1.5,6.4,7.24-.39,4.33-.26,8.72-.23,13.08,0,2-.74,3-2.9,3.07A21.67,21.67,0,0,1,150.13,89a71.51,71.51,0,0,0-8.42-7,16.67,16.67,0,0,0-12.08-2.18,8.46,8.46,0,0,0-6.48,4.55c-1.85,3.5-2.71,3.72-6.38,2.58Q83.34,76.47,49.88,66.11C36.74,62,23.57,58.06,10.41,54a24.41,24.41,0,0,1-2.75-1,7.61,7.61,0,0,1-5.08-6.64C1.71,36.35.84,26.33.05,16.29A12.23,12.23,0,0,1,2.17,8.1a7.38,7.38,0,0,1,6.2-3.59c6.35.07,12.69.23,19,.56S40.17,6.25,46.57,6.41c9.68.23,19.39.37,29.06,0C83.71,6,91.76,4.83,99.82,4c7.28-.74,14.55-1.78,21.85-2.15C137,1.08,152.28.43,167.59.17c16-.28,32.08-.16,48.11,0,12.24.12,24.49.36,36.72.92,8.87.41,17.72,1.4,26.58,2.17,9.37.8,18.74,1.84,28.12,2.42,8.16.51,16.36.8,24.53.68,7.77-.11,15.53-1,23.31-1.31a145.37,145.37,0,0,1,15.48-.12c6.35.4,9.1,3,9.41,9.32A146.69,146.69,0,0,1,378.58,43a10.89,10.89,0,0,1-7.61,9.3c-7.89,2.92-15.75,5.92-23.64,8.84q-36.72,13.55-73.44,27.06c-6.05,2.23-8,1.25-10-4.91-2.34-7.07-1.53-9.7,5.3-12.62,10.25-4.39,20.64-8.47,31.1-12.32,18.3-6.74,36.71-13.21,55.07-19.8a8.59,8.59,0,0,0,5.95-7.95c.14-3.54-1.85-5.77-5.38-5.8-7.08-.06-14.16.27-21.22-.08-9.26-.45-18.51-1.37-27.76-2.16-7.42-.64-14.83-1.46-22.25-2.07-8.54-.69-17.09-1.27-25.64-1.81-4.44-.28-8.89-.49-13.34-.52-27.63-.19-55.26-.38-82.89-.43-11.06,0-22.13.11-33.19.49-14.83.51-29.64,1.46-44.39,3.33-13.54,1.71-27.13,3.08-40.73,4.3-7,.63-14.12.61-21.18.88C22.2,26.79,21.11,26.75,19.73,26.75Z"/></g></g></svg>