<svg xmlns="http://www.w3.org/2000/svg" viewBox="0 0 331.56 366.65"><defs><style>.cls-1{fill:#fff;}</style></defs><g id="Calque_2" data-name="Calque 2"><g id="Calque_1-2" data-name="Calque 1"><path id="Fleche_Haute" data-name="Fleche Haute" class="cls-1" d="M96.61,168.54H92.36q-41.07,0-82.13,0c-1.14,0-2.29-.09-3.43-.18-3.26-.25-5.29-2-6.38-5.08s0-5.34,2-7.33c5.33-5.26,10.78-10.4,16.17-15.61Q69.33,91.31,120,42.26q20.29-19.63,40.51-39.38c4-3.85,6.41-3.83,10.35,0Q222.46,53,274.07,103.17c18.08,17.52,36.33,34.87,54.52,52.27,2.36,2.25,3.75,4.63,2.5,8s-3.87,5-7.43,5c-5.1.06-10.2.05-15.3.05H234.17v190c0,6.2-1.94,8.1-8.18,8.1H105.13c-6.67,0-8.52-1.79-8.52-8.41V172.55C96.62,171.33,96.61,170.1,96.61,168.54Z"/></g></g></svg>