<svg xmlns="http://www.w3.org/2000/svg" viewBox="0 0 572.3 844.18"><defs><style>.cls-1,.cls-2{fill:#fff;}.cls-2{font-size:734.29px;font-family:Georgia-Bold, Georgia;font-weight:700;letter-spacing:-0.02em;}</style></defs><g id="Calque_2" data-name="Calque 2"><g id="Calque_1-2" data-name="Calque 1"><g id="AC"><path class="cls-1" d="M450.26,427.18c0-58.52-.18-117,.29-175.55a25.52,25.52,0,0,1,6.66-15.91q29.64-30.74,60.59-60.2c11.91-11.3,27.93-10,40.17.87,8.76,7.75,16.92,15.4,13.55,28.42-1.44,5.57-3.06,12-6.79,15.95-16.57,17.6-34.17,34.23-50.83,51.75a22.52,22.52,0,0,0-5.81,14q-.52,140.45,0,280.89c0,4.66,3.05,10.26,6.39,13.8,16.6,17.58,33.81,34.59,50.74,51.86,7.68,7.85,7.33,29.89.22,38.4-8.39,10-17.57,17.91-31.67,14.17-5.89-1.57-12.62-3.43-16.8-7.42q-30.45-29.1-59.46-59.68a27.4,27.4,0,0,1-6.9-17C450.07,543.45,450.27,485.31,450.26,427.18Z"/><path class="cls-1" d="M120.29,427.28c0,58.5.15,117-.27,175.5a24,24,0,0,1-6.11,15c-20.21,21.13-41,41.67-61.7,62.37-8.22,8.24-27.68,8.58-35.39,0C9.91,672.47-.4,667.73,0,654c.36-11.84,3.33-20.28,12.14-28.31C28.28,611,43.48,595.24,58.61,579.51a19.12,19.12,0,0,0,5.08-11.94q.42-141.57,0-283.14c0-4.32-2.55-9.6-5.62-12.79C41.3,254.21,24,237.36,6.94,220.18c-9.59-9.68-8.61-28.11.27-38.57S26,165.77,39.43,168.54c4.21.86,9,2.39,12,5.25q31.88,31,62.86,62.86a22.32,22.32,0,0,1,5.8,14C120.43,309.5,120.3,368.39,120.29,427.28Z"/><text class="cls-2" transform="translate(162.8 621.53) scale(0.66 1)">1</text></g></g></g></svg>