<svg xmlns="http://www.w3.org/2000/svg" viewBox="0 0 454.64 614"><defs><style>.cls-1{fill:#fff;}</style></defs><g id="Calque_2" data-name="Calque 2"><g id="Calque_1-2" data-name="Calque 1"><g id="annuraire"><path class="cls-1" d="M.08,307.6q0-137.39,0-274.78C.14,9.63,10.08,0,33.29,0H418.8c26.74,0,35.7,8.9,35.7,35.41q0,198.78.14,397.58c0,15.8-5.18,28.23-16.39,39.33-44.1,43.68-87.55,88-131.91,131.42-5.6,5.48-15.16,9.71-22.93,9.77-85.55.68-171.11.51-256.66.34C9.46,613.81,0,603,0,584.4V307.6Zm38.44-271V576.9a15.5,15.5,0,0,0,2.65.64c78.13.05,156.26.14,234.39-.15,3.64,0,8-2.77,10.78-5.54,41-41.44,81.73-83.24,122.91-124.55,5.22-5.24,7.26-10.14,7.25-17.33q-.28-191.13-.15-382.28v-11Z"/><path class="cls-1" d="M60.59,320.47h95.25v108.7H60.59ZM116,352c-11.39,19.89-19.86,38.72-22,60,15.9,1.06,15.74,1,18.54-12.79,3.35-16.48,9-31.93,19.15-45.72,2.66-3.62,2.92-9,4.28-13.61H85.42V352Z"/><path class="cls-1" d="M61.91,166.47V59.21h94V166.47ZM104.4,152h16.53v-77c-6.85,4.19-11.32,7-15.83,9.67-3.67,2.21-7.16,5-11.13,6.35-6,2-7.94,5.18-5,11.68H104.4V152Z"/><path class="cls-1" d="M394,58.6V166.33H296.46a36.64,36.64,0,0,1-.75-5.28c-.06-31.14,0-62.28-.1-93.42,0-4.67-.11-9,6.29-9Zm-33.53,55.13c9-7.47,11.31-14.07,8.12-22.74-3.57-9.67-11.37-14.64-22.77-14.47-13.39.21-21.39,6.18-26,19.89,6.09,1.83,11.76,6,17.06-2.36,1.7-2.69,6.58-4.94,9.73-4.62,2.59.26,6.74,4.68,6.66,7.15-.11,3.67-2.79,7.74-5.44,10.69-1.63,1.82-5.23,1.89-8.1,2.79.25,3.54.45,6.47.67,9.69,1.68.34,3.28.19,4.13.91,3.45,2.89,8.54,5.61,9.41,9.26.75,3.11-3.16,10.31-5.52,10.54-4.24.41-10.7-1.78-13-5.1-5.84-8.56-11.61-3.46-18-2.75,5.32,15.89,12,20.83,27.41,20.94,12.84.09,21.55-4.86,25.11-14.29C373.71,129.49,371.23,122.55,360.49,113.73Z"/><path class="cls-1" d="M178.84,166.5V59.16h95.91V166.5Zm21.73-68c12.92,3.37,13.46,2.94,17.29-2,2.23-2.87,5.68-5.81,9-6.44,2.17-.42,7,3,7.3,5.17.5,4.18-.25,9.43-2.58,12.79-2.49,3.58-7.36,5.53-11.25,8.11-14.24,9.43-20.65,22.22-17.82,35.78h49.87V138.87H220.26l-1.08-2.47c7.51-5.82,15.07-11.57,22.53-17.46,11.47-9,13.61-27.79,3.76-36.31-8.65-7.49-19.07-7.88-29.21-3.94C207.83,82,202.1,88.37,200.57,98.53Z"/><path class="cls-1" d="M60.3,297.88v-108h95.39v108Zm66.26-88.66c-11.88-3.81-18.65.19-23.68,9.93-5.2,10.08-12.12,19.26-17.42,29.29-2.9,5.49-4,11.93-6.49,19.66h32.67c.52,5.12,1,9.26,1.34,13.08h13.35c.36-4.59.65-8.49,1-12.44l8.31-1.3v-9l-9-2.5Z"/><path class="cls-1" d="M179,189.63h95.86v108H179ZM199.6,263.7c9,18.35,23.33,24.13,38.33,18.4,12.34-4.71,18.72-18.86,15.1-33.45C249.65,235,239.25,230.11,219.28,233V221.22h31.36c-.24-5.07-.42-8.91-.6-12.84H204.28V251c5.27-1.24,10.72-2,15.74-3.84,6-2.26,11.2-2.6,14.79,3.53,3.85,6.58,3.18,12.91-2.49,18.21-5.48,5.13-9,.32-13.83-2.1S207.48,264.82,199.6,263.7Z"/><path class="cls-1" d="M296.4,320.38H394V427.79H296.4Zm24.75,77.39c2.66,11.52,11.4,14.82,20.81,16.05,9.11,1.19,16.86-2.48,22.56-10,8.81-11.64,8-25.16,7.49-38.54-.78-19.31-15-30.58-33.92-26.92-10.48,2-17.39,8.68-19.89,18.9-2.39,9.82.62,18.66,8.48,25.13s16.42,6.14,25.26,2.12a47.35,47.35,0,0,1,5.51-1.55c-1.91,5.43-2.72,9.41-4.62,12.77-3.48,6.13-9.46,7.61-14,2.49C332.4,391,327.33,395,321.15,397.77Z"/><path class="cls-1" d="M393.85,297.62H296.26V189.77h97.59Zm-22.47-73.48c-8.79-19.32-33.22-22.27-45.07-6.21-9.72,13.19-10.84,40.18-2.25,54.25,6.54,10.72,23.42,15,35.86,9.09,10.38-4.92,15.41-19,11.16-31.2-4.69-13.45-14.59-18.35-29.57-14.65-1.73.43-3.47.84-6.85,1.66,2.3-5,3.06-9.66,5.81-11.73,3.18-2.4,10.9-4.53,11.83-3.25C358.08,230,364.26,226.35,371.38,224.14Z"/><path class="cls-1" d="M179,320.45H275V428.94H179Zm31.79,53.36c-10.61,7.2-13.23,13.61-10.27,24,2.86,10,11.46,15.77,24.74,16.55,12.07.7,22.89-4.95,26.71-14,4-9.42,1-18-9.27-26.68,10.55-11.39,11.63-21.49,3.14-29.37-9.63-9-29.24-8.74-38.82.41C198.51,352.92,199.52,361.61,210.82,373.81Z"/><path class="cls-1" d="M179.42,450.68h95.5V558.46h-95.5ZM257.75,504c-.12-1.67-.13-5.05-.62-8.36-2.2-15-13.11-26.39-27-28.44-9.67-1.42-22.17,5.85-27.41,16.68-7.12,14.69-7,29.78.08,44.37,6.38,13.24,19.9,18.3,33.82,13.62C250.37,537.26,257.93,524.31,257.75,504Z"/><path class="cls-1" d="M111.84,231.12v25.39H94.13c5.63-9.11,10.78-17.46,15.93-25.81Z"/><path class="cls-1" d="M333.64,362c.65-7.16,4.41-11.79,11.95-11.63s10.07,5.41,10.25,12.11c.21,7.59-3.89,12.32-11.16,12.47C336.82,375.12,334.27,369.16,333.64,362Z"/><path class="cls-1" d="M356.07,256.37c.07,8.33-1.85,13.27-9.39,13.35-7.89.08-10.14-5.5-10.78-11.89-.69-7,3.62-11.24,9.84-11.51C353,246,356.15,251.18,356.07,256.37Z"/><path class="cls-1" d="M237.15,390.4c-.51,6.56-3.63,10.17-10.7,10.24-7.84.08-11.62-5.22-10.72-11.18.58-3.86,6.22-9.24,10.18-9.79C231.82,378.84,237.6,382.31,237.15,390.4Z"/><path class="cls-1" d="M225.84,371.56c-4-6.17-8.35-9.94-8.26-13.6.07-2.71,6.24-7.71,9-7.3,3.72.55,9.4,5.31,9.48,8.39C236.2,362.38,230.82,365.86,225.84,371.56Z"/><path class="cls-1" d="M242.09,504.69c-1.26,6.62-1.28,12.63-3.69,17.46-1.79,3.58-6.46,7.32-10.26,7.82-3,.39-8.21-3.2-9.85-6.36-6-11.52-5.47-23.88-.4-35.53,1.39-3.19,6.58-6.57,10-6.53s8,3.63,9.66,6.89C240.17,493.53,240.79,499.67,242.09,504.69Z"/></g></g></g></svg>