<svg xmlns="http://www.w3.org/2000/svg" viewBox="0 0 287.48 404.37"><defs><style>.cls-1{fill:#ffcd40;}</style></defs><g id="Calque_2" data-name="Calque 2"><g id="Calque_1-2" data-name="Calque 1"><path class="cls-1" d="M287.48,202.38q0,78.42,0,156.82c0,11.39-.18,22.77-.3,34.16a32.42,32.42,0,0,1-.37,4.05c-.9,6.15-6.19,8.84-11.42,5.53-6.4-4.05-12.64-8.36-18.83-12.74Q211.29,358.15,166.11,326q-12.93-9.21-25.58-18.82a15.87,15.87,0,0,0-10.1-3.4q-32.22.06-64.44,0c-18-.06-36.09-.21-54.13-.34a20.07,20.07,0,0,1-3.64-.25c-5.31-1-7.84-4.65-7.89-11.32C.24,280.26.15,268.73.14,257.2Q0,187.81,0,118.43a44.9,44.9,0,0,1,.79-8.74,8.07,8.07,0,0,1,8.36-6.89q23.73-.21,47.47-.2,36.09,0,72.18.2a15.57,15.57,0,0,0,9.73-3.17q52.89-38.56,105.9-76.95c9.62-7,19.43-13.67,29.15-20.48,2-1.37,4-2.46,6.55-2.15,3.78.46,6.49,2.85,6.6,6.66.3,11.23.54,22.47.55,33.7q.09,81,0,162ZM271.39,202h0q0-27.71,0-55.42.12-59.29.29-118.58a10.62,10.62,0,0,0-.07-1.49c-.2-1.37-1-1.66-2.12-1-.49.29-1,.62-1.43.95-8.75,6.21-17.53,12.37-26.25,18.63q-45.65,32.81-91.28,65.66a9.73,9.73,0,0,0-4.34,8.55q.07,83,0,166.06a9.83,9.83,0,0,0,4.09,8.48c2.74,2.07,5.39,4.26,8.19,6.24q54.84,39,109.72,77.87a9.17,9.17,0,0,0,2.46.85,11.89,11.89,0,0,0,.7-2.79Q271.4,289.05,271.39,202Zm-141.34.74V124c0-4.48-.77-5.27-5.22-5.26l-103.3.15c-3.67,0-4.63,1-4.63,4.76q0,66.68,0,133.37,0,13,0,26c0,2.57,1.14,3.81,3.69,4,.78.07,1.57,0,2.36,0l102.66-.35c3.48,0,4.46-1,4.46-4.44Z"/></g></g></svg>